<svg data-v-0dd9719b="" version="1.0" xmlns="http://www.w3.org/2000/svg" xmlns:xlink="http://www.w3.org/1999/xlink" width="100%" height="100%" viewBox="0 0 340.000000 250.000000" preserveAspectRatio="xMidYMid meet" color-interpolation-filters="sRGB" style="margin: auto;"> <rect data-v-0dd9719b="" x="0" y="0" width="100%" height="100%" fill="#fff" fill-opacity="1" class="background"></rect> <rect data-v-0dd9719b="" x="0" y="0" width="100%" height="100%" fill="url(#watermark)" fill-opacity="1" class="watermarklayer"></rect> <g data-v-0dd9719b="" fill="#333333" class="icon-text-wrapper icon-svg-group iconsvg" transform="translate(48.56000518798828,86.95790100239464)"><g class="iconsvg-imagesvg" transform="translate(0,0)"><g><rect fill="#333333" fill-opacity="0" stroke-width="2" x="0" y="0" width="60" height="76.0841998478316" class="image-rect"></rect> <svg x="0" y="0" width="60" height="76.0841998478316" filtersec="colorsb7649575761" class="image-svg-svg primary" style="overflow: visible;"><svg xmlns="http://www.w3.org/2000/svg" viewBox="0.015243369154632092 0.022621607407927513 78.81001281738281 99.93712615966797"><defs><linearGradient id="ac0eb33ae-3eac-4667-81c6-086f56239a69" x1="774.37" y1="140.57" x2="774.37" y2="25.45" gradientTransform="matrix(-.88 .47 .47 .88 687.68 -372.05)" gradientUnits="userSpaceOnUse"><stop offset="0" stop-color="#00e155"></stop><stop offset="1" stop-color="#007262"></stop></linearGradient><linearGradient id="b362e1d9c-ebf6-4afd-aff8-7acbc643cdec" x1="720.61" y1="39.7" x2="734.27" y2="108.21" gradientTransform="matrix(-.9 .44 .44 .9 657.16 -347.09)" gradientUnits="userSpaceOnUse"><stop offset="0" stop-color="#ff566f"></stop><stop offset="1" stop-color="#fc0"></stop></linearGradient></defs><g><g><path d="M75.45 51.3L53.88 28.18a11.19 11.19 0 0 0-18.52 3.41L18 84.55A11.18 11.18 0 0 0 32.4 99.2l42.67-31.39s8.19-7.64.38-16.51z" opacity=".8" fill="url(#ac0eb33ae-3eac-4667-81c6-086f56239a69)"></path><path d="M5.05 47.57L31.81 71.8a11.19 11.19 0 0 0 16.92-6.41L64 14.17A11.18 11.18 0 0 0 47.05 1.88l-42 27a11.19 11.19 0 0 0 0 18.69z" opacity=".8" fill="url(#b362e1d9c-ebf6-4afd-aff8-7acbc643cdec)"></path><path d="M24.37 65.07l11-33.48a11.19 11.19 0 0 1 18.52-3.41L58.38 33l-9.65 32.4a11.19 11.19 0 0 1-16.92 6.4z" fill="#ffca00" opacity=".8"></path></g></g></svg></svg> <!----></g></g> <g transform="translate(67,21.377098083496094)"><g data-gra="path-name" fill-rule="" class="tp-name iconsvg-namesvg"><g transform="scale(1)"><g><path d="M20.01-11.79L20.01-11.79Q20.33-11.25 20.57-10.64 20.81-10.04 21.04-9.43L21.04-9.43Q21.26-10.06 21.52-10.64 21.77-11.22 22.08-11.82L22.08-11.82 33.13-31.87Q33.42-32.4 33.74-32.51 34.06-32.63 34.65-32.63L34.65-32.63 37.91-32.63 37.91 0 34.04 0 34.04-23.97Q34.04-24.45 34.06-25 34.08-25.55 34.13-26.11L34.13-26.11 22.95-5.71Q22.38-4.69 21.36-4.69L21.36-4.69 20.72-4.69Q19.69-4.69 19.12-5.71L19.12-5.71 7.7-26.18Q7.76-25.59 7.8-25.02 7.83-24.45 7.83-23.97L7.83-23.97 7.83 0 3.96 0 3.96-32.63 7.22-32.63Q7.81-32.63 8.13-32.51 8.45-32.4 8.74-31.87L8.74-31.87 20.01-11.79ZM44.17-11.93L44.17-15.37 55.42-15.37 55.42-11.93 44.17-11.93ZM66.5-32.63L66.5-18.33 68.17-18.33Q69.03-18.33 69.54-18.54 70.06-18.76 70.51-19.28L70.51-19.28 81.37-31.58Q81.87-32.15 82.34-32.39 82.81-32.63 83.53-32.63L83.53-32.63 87.29-32.63 74.86-18.58Q74.38-18.05 73.96-17.69 73.54-17.33 73.06-17.1L73.06-17.1Q73.7-16.89 74.18-16.48 74.65-16.07 75.18-15.46L75.18-15.46 88.16 0 84.33 0Q83.9 0 83.6-0.07 83.31-0.14 83.09-0.25 82.87-0.36 82.69-0.55 82.51-0.73 82.33-0.93L82.33-0.93 71.06-13.89Q70.81-14.16 70.59-14.35 70.37-14.55 70.09-14.69 69.81-14.82 69.43-14.88 69.05-14.94 68.51-14.94L68.51-14.94 66.5-14.94 66.5 0 62.11 0 62.11-32.63 66.5-32.63ZM122.28-16.3L122.28-16.3Q122.28-12.64 121.12-9.57 119.96-6.51 117.84-4.3 115.73-2.09 112.76-0.88 109.78 0.34 106.19 0.34L106.19 0.34Q102.59 0.34 99.63-0.88 96.67-2.09 94.55-4.3 92.44-6.51 91.27-9.57 90.11-12.64 90.11-16.3L90.11-16.3Q90.11-19.97 91.27-23.03 92.44-26.09 94.55-28.31 96.67-30.53 99.63-31.76 102.59-32.99 106.19-32.99L106.19-32.99Q109.78-32.99 112.76-31.76 115.73-30.53 117.84-28.31 119.96-26.09 121.12-23.03 122.28-19.97 122.28-16.3ZM117.75-16.3L117.75-16.3Q117.75-19.31 116.93-21.7 116.11-24.09 114.61-25.74 113.11-27.39 110.97-28.28 108.83-29.17 106.19-29.17L106.19-29.17Q103.57-29.17 101.43-28.28 99.29-27.39 97.78-25.74 96.26-24.09 95.44-21.7 94.62-19.31 94.62-16.3L94.62-16.3Q94.62-13.3 95.44-10.92 96.26-8.54 97.78-6.89 99.29-5.24 101.43-4.36 103.57-3.48 106.19-3.48L106.19-3.48Q108.83-3.48 110.97-4.36 113.11-5.24 114.61-6.89 116.11-8.54 116.93-10.92 117.75-13.3 117.75-16.3ZM138.4-12.2L133.17-12.2 133.17 0 128.77 0 128.77-32.63 138.4-32.63Q141.5-32.63 143.79-31.91 146.08-31.19 147.58-29.87 149.08-28.55 149.82-26.68 150.56-24.82 150.56-22.52L150.56-22.52Q150.56-20.24 149.76-18.35 148.97-16.46 147.43-15.09 145.89-13.73 143.62-12.97 141.34-12.2 138.4-12.2L138.4-12.2ZM133.17-29.14L133.17-15.71 138.4-15.71Q140.29-15.71 141.74-16.21 143.18-16.71 144.16-17.61 145.14-18.51 145.64-19.76 146.14-21.01 146.14-22.52L146.14-22.52Q146.14-25.64 144.22-27.39 142.3-29.14 138.4-29.14L138.4-29.14 133.17-29.14ZM166.79-32.63L179.84 0 176.43 0Q175.83 0 175.47-0.3 175.1-0.59 174.92-1.05L174.92-1.05 171.87-8.92 157.23-8.92 154.18-1.05Q154.02-0.64 153.64-0.32 153.25 0 152.68 0L152.68 0 149.26 0 162.31-32.63 166.79-32.63ZM163.58-25.36L158.46-12.11 170.64-12.11 165.52-25.39Q165.02-26.62 164.54-28.46L164.54-28.46Q164.29-27.53 164.05-26.74 163.81-25.95 163.58-25.36L163.58-25.36Z" transform="translate(-3.9600000381469727, 32.9900016784668)"></path></g> <!----> <!----> <!----> <!----> <!----> <!----> <!----></g></g> <!----></g></g><defs v-gra="od"></defs></svg>